<svg width="16" height="16" viewBox="0 0 16 16" fill="none" xmlns="http://www.w3.org/2000/svg">
<g clip-path="url(#clip0_303_6191)">
<rect width="16" height="16" rx="8" fill="#E2E6EE"/>
<path d="M7.99998 11.75C7.4737 11.3011 6.98589 10.8089 6.54165 10.2787C5.87498 9.48246 5.08331 8.29663 5.08331 7.16663C5.08272 5.98644 5.79342 4.92221 6.88376 4.47054C7.9741 4.01888 9.22917 4.26881 10.0633 5.10371C10.6118 5.6498 10.9191 6.39262 10.9167 7.16663C10.9167 8.29663 10.125 9.48246 9.45831 10.2787C9.01407 10.8089 8.52626 11.3011 7.99998 11.75ZM7.99998 5.91663C7.5534 5.91663 7.14074 6.15488 6.91745 6.54163C6.69416 6.92838 6.69416 7.40488 6.91745 7.79163C7.14074 8.17838 7.5534 8.41663 7.99998 8.41663C8.69034 8.41663 9.24998 7.85698 9.24998 7.16663C9.24998 6.47627 8.69034 5.91663 7.99998 5.91663Z" fill="#79819A"/>
</g>
<defs>
<clipPath id="clip0_303_6191">
<rect width="16" height="16" rx="8" fill="white"/>
</clipPath>
</defs>
</svg>
