<svg width="6" height="6" viewBox="0 0 6 6" fill="none" xmlns="http://www.w3.org/2000/svg">
<path d="M4.82189 2.84222C5.47549 2.84222 5.91666 3.29718 5.91666 3.9712C5.91666 4.57782 5.41013 5.08334 4.72385 5.08334C3.97222 5.08334 3.41666 4.47672 3.41666 3.54994C3.41666 1.44363 4.95261 0.601104 5.91666 0.5L5.91666 1.42678C5.26307 1.54473 4.52778 2.2019 4.4951 2.92647C4.52778 2.90962 4.65849 2.84222 4.82189 2.84222Z" fill="#79819A"/>
<path d="M1.48856 2.84222C2.14216 2.84222 2.58333 3.29718 2.58333 3.9712C2.58333 4.57782 2.0768 5.08334 1.39052 5.08334C0.638887 5.08334 0.083332 4.47672 0.0833321 3.54994C0.0833318 1.44363 1.61928 0.601104 2.58333 0.5V1.42678C1.92974 1.54473 1.19444 2.2019 1.16176 2.92647C1.19444 2.90962 1.32516 2.84222 1.48856 2.84222Z" fill="#79819A"/>
</svg>
