<svg width="16" height="16" viewBox="0 0 16 16" fill="none" xmlns="http://www.w3.org/2000/svg">
<g clip-path="url(#clip0_303_6183)">
<rect width="16" height="16" rx="8" fill="#E2E6EE"/>
<path d="M10.9156 11.3333C7.3608 11.3383 4.66289 8.60808 4.66669 5.08434C4.66669 4.85422 4.85324 4.66663 5.08336 4.66663H6.18309C6.38958 4.66663 6.56499 4.81835 6.59531 5.0226C6.66798 5.51212 6.81051 5.9887 7.01856 6.43775L7.06137 6.53017C7.12091 6.65867 7.08055 6.81135 6.9653 6.89366C6.62473 7.13687 6.49457 7.62644 6.75989 8.00844C7.09284 8.48781 7.51254 8.90742 7.9918 9.24022C8.37378 9.50546 8.86327 9.37532 9.10648 9.03481C9.18884 8.9195 9.34161 8.87913 9.47019 8.93869L9.56218 8.9813C10.0113 9.18933 10.4879 9.33187 10.9774 9.40452C11.1817 9.43484 11.3334 9.61024 11.3334 9.81674V10.9166C11.3334 11.1467 11.1464 11.3333 10.9162 11.3333L10.9156 11.3333Z" fill="#79819A"/>
</g>
<defs>
<clipPath id="clip0_303_6183">
<rect width="16" height="16" rx="8" fill="white"/>
</clipPath>
</defs>
</svg>
